<svg width="576" height="217" viewBox="0 0 576 217" fill="none" xmlns="http://www.w3.org/2000/svg">
<path d="M442.351 53.6483V91.1871H517.304V124.547H442.351V162.64H528V195.993H404.94V20.2942H528V53.6483H442.351ZM138.57 198.319C167.59 198.319 194.248 186.19 210.826 163.037L182.433 140.565C174.079 152.875 159.518 163.843 139.576 163.843C109.953 163.843 86.7485 139.334 86.7485 108.159C86.7485 76.9854 109.953 52.4764 139.576 52.4764C159.518 52.4764 174.079 63.4438 182.433 75.7535L210.826 53.2824C194.248 30.1293 167.59 18 138.57 18C89.3673 18 48 57.9859 48 108.159C48 158.333 89.3673 198.319 138.57 198.319ZM319.619 20.2942L280.77 20.2943L349.164 195.993H388.323L319.619 20.2942ZM332.375 155.666H266.796L251.022 195.993H212.265L252.385 92.3533L332.375 155.666Z" fill="#2969F2"/>
</svg>
